<?xml version="1.0" encoding="utf-8"?>
<!-- Generator: Adobe Illustrator 20.1.0, SVG Export Plug-In . SVG Version: 6.00 Build 0)  -->
<svg version="1.1" id="Layer_1" xmlns="http://www.w3.org/2000/svg" xmlns:xlink="http://www.w3.org/1999/xlink" x="0px" y="0px"
	 viewBox="0 0 200 133" style="enable-background:new 0 0 200 133;" xml:space="preserve">
<style type="text/css">
	.st0{fill:#6EBCBC;}
	.st1{font-family:'Bungee-Regular';}
	.st2{font-size:20.7515px;}
	.st3{clip-path:url(#SVGID_2_);}
	.st4{fill:#231F20;}
	.st5{clip-path:url(#SVGID_2_);fill:#6EBCBC;}
</style>
<g>
	<text transform="matrix(1 0 0 1 14.0396 121.9531)"><tspan x="0" y="0" class="st0 st1 st2">M</tspan><tspan x="17.6" y="0" class="st1 st2">iste</tspan><tspan x="70.8" y="0" class="st0 st1 st2">R</tspan><tspan x="86.3" y="0" class="st1 st2">ussell</tspan></text>
</g>
<g>
	<defs>
		<path id="SVGID_1_" d="M100.9,15.2V99c0,3.2-1.5,4-4,4H83.5c-2.5,0-4-0.8-4-4V51.7L65.5,76.1c-0.7,1.1-2,2.9-4,2.9h-7
			c-2.1,0-3.2-1.8-3.9-2.9L36.5,51.7V99c0,3.2-1.5,4-4,4H18.7c-2.5,0-4-0.8-4-4V15.2c0-2.5,0.8-4,4-4h13.8c4.7,0,5.3,3.1,6.4,4.7
			L58,50.2l19.2-34.3c1-1.7,1.7-4.7,6.3-4.7h13.4C100,11.2,100.9,12.7,100.9,15.2z M179.3,103h-16.4c-3.3,0-5-1.3-7-4.2l-15-22.4
			c-1.3-1.7-1.5-3.2-1.5-7.1V58.1c0-2.5,0.8-4,4-4h2.8c6.8,0,13.2-4.7,13.2-11.3c0-7.2-5.6-11.8-12.8-11.8H128v68c0,3.2-1.5,4-4,4
			h-13.8c-2.5,0-3.9-0.8-3.9-4V15.5c0-2.5,0.7-4,3.9-4h35.1c15.2,0,21.9,3.1,27.7,8.9c5.2,5,8.1,13,8.1,21.9
			c0,14.6-10.7,24.8-19.4,27.7l19.6,28.6C182.6,100.5,181.9,103,179.3,103z"/>
	</defs>
	<clipPath id="SVGID_2_">
		<use xlink:href="#SVGID_1_"  style="overflow:visible;"/>
	</clipPath>
	<g class="st3">
		<path class="st4" d="M100.9,15.2V99c0,3.2-1.5,4-4,4H83.5c-2.5,0-4-0.8-4-4V51.7L65.5,76.1c-0.7,1.1-2,2.9-4,2.9h-7
			c-2.1,0-3.2-1.8-3.9-2.9L36.5,51.7V99c0,3.2-1.5,4-4,4H18.7c-2.5,0-4-0.8-4-4V15.2c0-2.5,0.8-4,4-4h13.8c4.7,0,5.3,3.1,6.4,4.7
			L58,50.2l19.2-34.3c1-1.7,1.7-4.7,6.3-4.7h13.4C100,11.2,100.9,12.7,100.9,15.2z"/>
	</g>
	<g class="st3">
		<path class="st4" d="M179.3,103h-16.4c-3.3,0-5-1.3-7-4.2l-15-22.4c-1.3-1.7-1.5-3.2-1.5-7.1V58.1c0-2.5,0.8-4,4-4h2.8
			c6.8,0,13.2-4.7,13.2-11.3c0-7.2-5.6-11.8-12.8-11.8H128v68c0,3.2-1.5,4-4,4h-13.8c-2.5,0-3.9-0.8-3.9-4V15.5c0-2.5,0.7-4,3.9-4
			h35.1c15.2,0,21.9,3.1,27.7,8.9c5.2,5,8.1,13,8.1,21.9c0,14.6-10.7,24.8-19.4,27.7l19.6,28.6C182.6,100.5,181.9,103,179.3,103z"/>
	</g>
	<rect x="10.6" y="7.4" class="st5" width="168" height="15.9"/>
</g>
</svg>
